<?xml version="1.0" standalone="no"?>
<!DOCTYPE svg PUBLIC "-//W3C//DTD SVG 20010904//EN"
 "http://www.w3.org/TR/2001/REC-SVG-20010904/DTD/svg10.dtd">
<svg version="1.0" xmlns="http://www.w3.org/2000/svg"
 width="535.000000pt" height="218.000000pt" viewBox="0 0 535.000000 218.000000"
 preserveAspectRatio="xMidYMid meet">

<g transform="translate(0.000000,218.000000) scale(0.100000,-0.100000)"
fill="#000000" stroke="none">
<path d="M1400 2123 c-80 -8 -80 -8 -62 -55 12 -35 15 -88 14 -272 0 -125 -3
-231 -6 -234 -3 -3 -29 2 -57 11 -67 22 -117 21 -156 -2 -89 -55 -182 -335
-170 -511 9 -140 59 -214 169 -255 103 -38 186 18 213 145 11 54 15 54 43 -2
36 -71 78 -98 151 -98 71 0 117 29 152 94 13 25 27 46 30 46 4 0 9 -17 13 -38
7 -45 39 -96 79 -126 23 -17 43 -21 100 -21 l71 0 32 43 c18 23 41 68 50 100
9 31 19 64 21 72 3 9 14 -4 29 -35 29 -60 61 -90 113 -106 49 -14 98 -6 144
25 l35 24 26 -53 c32 -64 55 -80 140 -100 95 -22 127 -4 180 103 15 28 29 52
32 52 4 0 3 -37 0 -82 -5 -60 -12 -86 -24 -96 -52 -39 -139 -136 -179 -199
-65 -105 -95 -198 -101 -315 -4 -88 -3 -100 18 -134 32 -50 101 -80 208 -88
91 -7 124 3 161 50 46 58 54 112 60 404 l6 275 38 1 c75 2 76 46 1 66 l-47 13
5 185 c4 138 10 195 22 224 9 21 16 40 16 42 0 2 -16 10 -35 18 l-35 15 1 93
c2 137 -21 173 -131 205 -30 8 -75 24 -99 35 -38 17 -50 18 -83 9 -113 -34
-175 -189 -185 -461 l-6 -155 -34 -42 c-47 -59 -77 -59 -104 1 -26 60 -40 215
-28 324 12 118 12 119 -11 142 -15 15 -33 20 -79 20 -91 0 -88 5 -83 -123 4
-128 -17 -294 -47 -362 -21 -47 -59 -79 -83 -70 -36 14 -42 54 -48 330 l-5
270 -30 14 c-16 8 -51 16 -77 19 l-47 4 -4 -158 c-5 -216 -40 -387 -88 -435
-12 -12 -33 -19 -55 -19 -31 0 -37 4 -52 38 -15 33 -17 79 -17 392 0 197 6
437 14 538 7 101 9 187 5 192 -12 10 -80 17 -124 13z m1347 -615 c39 -44 56
-144 32 -190 -6 -11 -17 -71 -24 -132 -20 -173 -78 -296 -145 -311 -57 -13
-78 24 -90 158 -13 153 10 308 59 404 43 86 124 119 168 71z m-1428 -39 l34
-20 -7 -98 c-8 -114 -45 -301 -76 -385 -29 -76 -68 -121 -98 -112 -44 14 -57
60 -56 191 1 236 73 445 153 445 9 0 31 -9 50 -21z m1459 -1009 c-5 -203 -18
-261 -68 -321 -54 -65 -131 -30 -145 66 -19 125 87 400 184 476 l26 21 3 -28
c2 -16 2 -112 0 -214z"/>
<path d="M433 2016 c-85 -21 -158 -63 -212 -121 -65 -72 -91 -141 -91 -244 0
-67 4 -86 31 -141 42 -82 135 -181 284 -298 260 -205 320 -294 248 -367 -52
-51 -107 -69 -218 -70 -211 0 -317 86 -272 222 9 26 15 48 14 49 -1 1 -25 -7
-54 -18 -132 -49 -120 -199 23 -275 173 -92 491 -88 629 7 66 45 90 92 89 171
-1 132 -69 220 -309 401 -146 109 -221 183 -258 252 -17 32 -22 59 -22 121 0
70 4 86 28 128 53 91 157 129 250 93 53 -20 89 -56 125 -126 15 -29 36 -57 48
-61 30 -11 67 11 78 46 4 17 15 42 22 57 44 84 -17 142 -183 174 -89 17 -179
17 -250 0z"/>
<path d="M3765 1661 c-50 -12 -73 -29 -106 -78 -46 -67 -77 -174 -89 -310 -19
-209 -38 -290 -90 -368 -33 -51 -67 -54 -90 -10 -12 23 -15 66 -14 190 1 143
4 169 27 247 15 48 24 94 21 101 -7 19 -42 34 -98 41 -25 3 -66 9 -91 12 l-45
5 0 44 c0 24 -3 50 -6 59 -8 20 -56 21 -94 1 l-30 -15 6 -168 c6 -152 0 -246
-22 -374 -6 -34 -4 -38 14 -38 13 0 27 11 36 28 17 34 42 149 56 262 7 53 17
89 26 96 15 12 55 7 64 -7 3 -5 2 -54 -2 -111 -15 -187 17 -365 79 -438 33
-40 89 -56 136 -41 38 13 88 67 108 117 l11 29 22 -50 c35 -77 70 -102 161
-110 60 -6 80 -4 99 9 32 21 78 89 101 149 17 46 35 62 35 32 0 -31 41 -96 73
-115 67 -41 146 -17 198 58 l24 36 8 -45 c17 -92 46 -113 145 -107 l47 3 8 65
c26 219 67 397 87 385 6 -4 10 -74 10 -161 0 -216 16 -248 122 -242 l52 3 17
85 c21 103 69 252 103 317 l24 48 -1 -145 c-1 -180 17 -254 74 -311 49 -49
115 -62 169 -33 65 35 136 171 156 299 7 50 -13 76 -40 50 -9 -9 -16 -25 -16
-35 0 -32 -42 -154 -62 -183 -43 -60 -97 -55 -119 10 -25 76 -8 400 22 419 17
10 9 52 -16 77 -47 46 -115 68 -159 51 -15 -6 -48 -86 -137 -329 l-44 -120 -3
177 -2 178 -30 15 c-16 8 -49 15 -74 15 -37 0 -48 -4 -64 -27 -27 -40 -55
-115 -83 -218 l-24 -90 -5 225 -5 225 -57 14 c-32 7 -64 11 -71 8 -11 -4 -16
-53 -21 -224 -8 -236 -23 -320 -72 -395 -73 -112 -147 38 -115 232 20 118 19
123 -10 137 -25 12 -27 18 -31 106 -3 51 -11 104 -18 117 -19 37 -51 70 -69
70 -9 0 -39 11 -66 24 -60 28 -109 36 -150 27z m129 -151 c35 -13 55 -48 65
-111 7 -44 5 -59 -10 -89 -11 -19 -19 -51 -19 -72 0 -66 -20 -191 -42 -261
-32 -102 -108 -158 -150 -109 -33 37 -43 95 -43 242 1 156 15 231 60 319 31
62 53 81 107 90 4 0 18 -3 32 -9z"/>
</g>
</svg>
